<?xml version="1.0" standalone="no"?><!DOCTYPE svg PUBLIC "-//W3C//DTD SVG 1.1//EN" "http://www.w3.org/Graphics/SVG/1.1/DTD/svg11.dtd"><svg t="1659411751315" class="icon" viewBox="0 0 1024 1024" version="1.1" xmlns="http://www.w3.org/2000/svg" p-id="20940" xmlns:xlink="http://www.w3.org/1999/xlink" width="200" height="200"><defs><style type="text/css">@font-face { font-family: feedback-iconfont; src: url("//at.alicdn.com/t/font_1031158_u69w8yhxdu.woff2?t=1630033759944") format("woff2"), url("//at.alicdn.com/t/font_1031158_u69w8yhxdu.woff?t=1630033759944") format("woff"), url("//at.alicdn.com/t/font_1031158_u69w8yhxdu.ttf?t=1630033759944") format("truetype"); }
</style></defs><path  stroke-width="300" d="M561.131489 327.497892c-15.752776-4.199649-32.025391-7.163143-49.132001-7.163143-105.8467 0-191.650925 85.804225-191.650925 191.664228 0 105.832374 85.805248 191.635575 191.650925 191.635575s191.650925-85.804225 191.650925-191.635575c0-17.119913-2.976798-33.405831-7.163143-49.172933l148.891052-284.235576L561.131489 327.497892 561.131489 327.497892zM511.999488 618.46273c-58.800197 0-106.4658-47.675836-106.4658-106.463754 0-58.814524 47.665603-106.463754 106.4658-106.463754 58.802244 0 106.4658 47.64923 106.4658 106.463754C618.466312 570.786894 570.801732 618.46273 511.999488 618.46273L511.999488 618.46273zM980.404598 307.559794c-9.094122-20.833491-33.335223-30.327726-54.139038-21.23565-20.820188 9.092076-30.3134 33.349549-21.223371 54.151317 23.738657 54.327326 35.782971 112.049982 35.782971 171.523515 0 236.440014-192.385659 428.823626-428.824649 428.823626-236.46662 0-428.835905-192.383612-428.835905-428.823626 0-236.437967 192.369286-428.823626 428.835905-428.823626 59.477626 0 117.184933 12.027941 171.523515 35.767622 20.760836 9.121751 45.033659-0.404206 54.124711-21.23565 9.107425-20.803815-0.375553-45.031613-21.223371-54.125735-64.753793-28.312836-133.527133-42.643216-204.425879-42.643216-281.801131 0-511.060605 229.244124-511.060605 511.059582 0 281.788851 229.259474 511.059582 511.060605 511.059582s511.060605-229.27073 511.060605-511.059582C1023.060093 441.101253 1008.717434 372.328937 980.404598 307.559794L980.404598 307.559794z" p-id="20941"  fill="#000000"></path></svg>