<?xml version="1.0" standalone="no"?><!DOCTYPE svg PUBLIC "-//W3C//DTD SVG 1.1//EN" "http://www.w3.org/Graphics/SVG/1.1/DTD/svg11.dtd"><svg t="1659411905997" class="icon" viewBox="0 0 1024 1024" version="1.1" xmlns="http://www.w3.org/2000/svg" p-id="26799" xmlns:xlink="http://www.w3.org/1999/xlink" width="200" height="200"><defs><style type="text/css">@font-face { font-family: feedback-iconfont; src: url("//at.alicdn.com/t/font_1031158_u69w8yhxdu.woff2?t=1630033759944") format("woff2"), url("//at.alicdn.com/t/font_1031158_u69w8yhxdu.woff?t=1630033759944") format("woff"), url("//at.alicdn.com/t/font_1031158_u69w8yhxdu.ttf?t=1630033759944") format("truetype"); }
</style></defs><path  stroke-width="70" d="M512 0C288.768 0 107.789474 178.229895 107.789474 398.012632c0 219.890526 180.978526 398.066526 404.210526 398.066526 223.232 0 404.210526-178.229895 404.210526-398.066526C916.210526 178.229895 735.232 0 512 0z m0 682.954105c-159.797895 0-289.414737-127.568842-289.414737-284.941473S352.256 113.071158 512 113.071158c159.797895 0 289.414737 127.568842 289.414737 284.941474s-129.616842 284.941474-289.414737 284.941473zM512 853.045895c191.434105 0 346.650947 72.865684 346.650947 149.557894 0 0 0 21.396211-20.37221 21.396211H185.721263c-20.372211 0-20.372211-21.396211-20.37221-21.396211 0-76.692211 155.216842-149.557895 346.650947-149.557894z" p-id="26800" fill="#000000"></path><path  stroke-width="70" d="M638.490947 215.309474c13.958737 13.312 22.635789 31.959579 22.63579 52.655158 0 40.528842-33.414737 73.404632-74.590316 73.404631-41.175579 0-74.536421-32.875789-74.536421-73.404631 0-40.582737 33.414737-73.404632 74.536421-73.404632 6.575158 0 12.934737 0.808421 18.970947 2.371368A226.627368 226.627368 0 0 0 512 176.882526c-124.011789 0-224.579368 99.004632-224.579368 221.130106S388.042105 619.142737 512 619.142737c124.011789 0 224.579368-99.004632 224.579368-221.130105a219.998316 219.998316 0 0 0-98.088421-182.703158z" p-id="26801" fill="#000000"></path><path d="M605.507368 196.931368c11.533474 5.227789 22.635789 11.371789 32.983579 18.378106a74.698105 74.698105 0 0 0-32.983579-18.324211z" p-id="26802" fill="#000000"></path></svg>