<?xml version="1.0" standalone="no"?><!DOCTYPE svg PUBLIC "-//W3C//DTD SVG 1.1//EN" "http://www.w3.org/Graphics/SVG/1.1/DTD/svg11.dtd"><svg t="1661776037034" class="icon" viewBox="0 0 1024 1024" version="1.1" xmlns="http://www.w3.org/2000/svg" p-id="6305" xmlns:xlink="http://www.w3.org/1999/xlink" width="200" height="200"><path d="M646.997333 562.517333m-273.066666 0a273.066667 273.066667 0 1 0 546.133333 0 273.066667 273.066667 0 1 0-546.133333 0Z" fill="#333333" opacity=".3" p-id="6306"></path><path d="M302.592 753.152c-18.261333 0-36.010667-7.68-48.64-20.992L43.349333 512a68.096 68.096 0 0 1-18.602666-51.029333c1.194667-18.773333 10.410667-36.352 25.088-48.298667l62.805333-50.688a67.242667 67.242667 0 0 1 62.293333-12.117333l73.898667 22.698666-108.032-115.029333a68.1472 68.1472 0 0 1-17.92-53.589333c2.048-19.456 12.458667-37.034667 28.672-48.298667l67.072-46.762667c18.602667-12.970667 42.325333-15.701333 63.488-7.338666l325.12 128.853333c48.128-28.842667 136.362667-81.578667 152.234667-90.624 62.634667-36.522667 142.336-25.770667 193.365333 26.112a144.896 144.896 0 0 1 43.861333 113.493333 137.949867 137.949867 0 0 1-50.005333 98.474667c-27.818667 20.992-550.229333 330.410667-609.621333 365.738667-10.410667 6.144-22.869333 9.386667-34.474667 9.386666 0.170667 0.170667 0.170667 0.170667 0 0.170667z m1.024-67.925333h0.170667-0.170667zM154.965333 415.232L92.672 465.92l210.432 218.794667c221.184-130.901333 580.266667-344.746667 601.770667-360.448 13.653333-11.264 22.869333-29.525333 24.064-48.810667 1.365333-23.04-7.168-45.056-23.722667-60.928-29.866667-30.378667-75.264-36.522667-111.274667-15.530667-16.213333 9.216-115.541333 68.608-157.866666 94.037334l-7.850667 4.778666c-9.045333 5.461333-20.309333 6.314667-30.037333 2.389334L257.194667 165.205333l-66.56 46.762667 163.669333 173.226667c6.997333 7.509333 10.410667 17.749333 8.874667 27.989333-1.365333 10.24-7.338667 19.285333-16.213334 24.576l-26.965333 16.213333c-8.362667 4.949333-18.432 6.314667-27.648 3.413334l-137.386667-42.154667zM962.218667 927.061333H59.733333c-18.773333 0-34.133333-15.36-34.133333-34.133333s15.36-34.133333 34.133333-34.133333h902.485334a34.133333 34.133333 0 1 1 0 68.266666z" fill="#333333" p-id="6307"></path></svg>