<?xml version="1.0" encoding="UTF-8"?>
<svg width="295px" height="198px" viewBox="0 0 295 198" version="1.1" xmlns="http://www.w3.org/2000/svg" xmlns:xlink="http://www.w3.org/1999/xlink">
    <!-- Generator: Sketch 49.3 (51167) - http://www.bohemiancoding.com/sketch -->
    <title>Group 4</title>
    <desc>Created with Sketch.</desc>
    <defs></defs>
    <g id="H5" stroke="none" stroke-width="1" fill="none" fill-rule="evenodd">
        <g id="导航-copy" transform="translate(-60.000000, -481.000000)">
            <g id="Group-4" transform="translate(60.000000, 468.000000)">
                <g id="Group">
                    <path d="M7.98701493,14.256 L9.23746269,14.256 L9.23746269,15.9632 L16.0708955,15.9632 L16.0708955,17.16 L9.23746269,17.16 L9.23746269,19.3952 L14.8556716,19.3952 L14.8556716,25.0448 L3.19656716,25.0448 L3.19656716,19.3952 L7.98701493,19.3952 L7.98701493,14.256 Z M13.5876119,23.8656 L13.5876119,20.592 L4.46462687,20.592 L4.46462687,23.8656 L13.5876119,23.8656 Z M3.16134328,25.8192 L4.23567164,26.3296 C3.56641791,27.8608 2.80910448,29.1808 1.92850746,30.3072 L0.889402985,29.5504 C1.77,28.512 2.52731343,27.2624 3.16134328,25.8192 Z M7.00074627,26.3296 C7.35298507,27.4912 7.67,28.7584 7.95179104,30.1136 L6.68373134,30.3952 C6.43716418,28.952 6.15537313,27.6848 5.82074627,26.576 L7.00074627,26.3296 Z M10.6816418,26.1536 C11.21,27.3504 11.6679104,28.6704 12.0553731,30.0784 L10.8049254,30.36 C10.4526866,28.864 10.0123881,27.544 9.48402985,26.4 L10.6816418,26.1536 Z M14.2920896,25.8016 C15.4192537,27.28 16.2646269,28.5648 16.8634328,29.656 L15.8067164,30.3952 C15.1902985,29.1984 14.3449254,27.896 13.270597,26.4528 L14.2920896,25.8016 Z M20.1040299,16.8256 L25.8631343,16.8256 L25.8631343,14.344 L27.1664179,14.344 L27.1664179,16.8256 L32.8550746,16.8256 L32.8550746,18.04 L27.1664179,18.04 L27.1664179,20.9616 L34.2992537,20.9616 L34.2992537,22.1936 L27.1664179,22.1936 L27.1664179,28.4064 L31.3228358,28.4064 L31.3228358,23.7248 L32.5380597,23.7248 L32.5380597,30.3952 L31.3228358,30.3952 L31.3228358,29.5856 L21.7243284,29.5856 L21.7243284,30.3952 L20.5091045,30.3952 L20.5091045,23.7248 L21.7243284,23.7248 L21.7243284,28.4064 L25.8631343,28.4064 L25.8631343,22.1936 L18.7479104,22.1936 L18.7479104,20.9616 L25.8631343,20.9616 L25.8631343,18.04 L20.1040299,18.04 L20.1040299,16.8256 Z M37.2756716,14.52 C38.35,15.4 39.248209,16.2976 39.9702985,17.1776 L39.0897015,18.0576 C38.4380597,17.2128 37.5398507,16.3152 36.3950746,15.3648 L37.2756716,14.52 Z M37.0114925,18.6384 C38.050597,19.5184 38.931194,20.3808 39.6356716,21.2432 L38.7550746,22.1232 C38.1210448,21.296 37.2404478,20.416 36.1485075,19.4832 L37.0114925,18.6384 Z M39.0192537,23.584 L40.1464179,24.024 C39.3538806,26.2416 38.4732836,28.336 37.4870149,30.2896 L36.3422388,29.7968 C37.3813433,27.7552 38.2795522,25.696 39.0192537,23.584 Z M40.5162687,17.16 L42.9819403,17.16 C42.7001493,16.2096 42.4007463,15.312 42.0485075,14.4848 L43.351791,14.2736 C43.6335821,15.1184 43.8977612,16.0864 44.1795522,17.16 L46.3810448,17.16 L46.3810448,18.392 L45.5708955,18.392 C45.2714925,20.7152 44.8664179,22.6512 44.3732836,24.2 C45.2186567,25.6608 45.9407463,26.9984 46.5043284,28.1952 L45.5004478,28.8992 C45.0073134,27.8432 44.4613433,26.752 43.8449254,25.6256 C43.0171642,27.4032 41.8195522,29.0048 40.2344776,30.4128 L39.4595522,29.4096 C40.9741791,28.0544 42.1013433,26.5584 42.8410448,24.9392 C42.9291045,24.728 43.0171642,24.5344 43.0876119,24.3232 C42.3831343,23.0912 41.590597,21.824 40.7276119,20.504 L41.7138806,19.888 C42.3831343,20.9088 42.9995522,21.8944 43.5631343,22.8272 C43.9153731,21.5424 44.1971642,20.064 44.4085075,18.392 L40.5162687,18.392 L40.5162687,17.16 Z M47.4201493,15.752 L48.6001493,15.752 L48.6001493,26.752 L47.4201493,26.752 L47.4201493,15.752 Z M49.8858209,30.2192 L47.5610448,30.2192 L47.2792537,29.0048 C48.0365672,29.04 48.7586567,29.0752 49.4455224,29.0752 C49.9738806,29.0752 50.2380597,28.7936 50.2380597,28.248 L50.2380597,14.2736 L51.4532836,14.2736 L51.4532836,28.5824 C51.4532836,29.6736 50.9249254,30.2192 49.8858209,30.2192 Z M66.3353731,20.68 L66.3353731,26.9456 L65.0849254,26.9456 L65.0849254,21.8416 L58.128209,21.8416 L58.128209,26.9808 L56.8601493,26.9808 L56.8601493,20.68 L66.3353731,20.68 Z M60.8404478,22.968 L62.0908955,22.968 L62.0908955,24.1824 C62.0204478,25.8896 61.4216418,27.2624 60.2944776,28.2832 C59.1849254,29.216 57.3708955,29.9552 54.8523881,30.4832 L54.1302985,29.3568 C56.631194,28.864 58.3747761,28.2304 59.3786567,27.4384 C60.2944776,26.5936 60.77,25.52 60.8404478,24.1824 L60.8404478,22.968 Z M67.3216418,30.0784 L63.9049254,30.0784 C62.8129851,30.0784 62.2670149,29.5152 62.2670149,28.4064 L62.2670149,25.0272 L63.4822388,25.0272 L63.4822388,28.1424 C63.4822388,28.6528 63.7464179,28.9168 64.2747761,28.9168 L67.0926866,28.9168 C67.4625373,28.9168 67.7267164,28.8112 67.9028358,28.6176 C68.1141791,28.3712 68.2550746,27.6848 68.3255224,26.5232 L69.4879104,26.8928 C69.3822388,28.4064 69.1356716,29.3216 68.7834328,29.656 C68.4664179,29.9376 67.9908955,30.0784 67.3216418,30.0784 Z M58.4804478,14.2208 L59.7308955,14.2208 L59.7308955,19.9408 L58.4804478,19.9408 L58.4804478,14.2208 Z M55.0285075,14.96 L56.2437313,14.96 L56.2437313,19.5008 L55.0285075,19.5008 L55.0285075,14.96 Z M63.6231343,16.7024 C63.0595522,17.776 62.3902985,18.6736 61.6329851,19.3776 L60.6819403,18.4976 C61.8795522,17.3184 62.7777612,15.84 63.3589552,14.08 L64.5741791,14.3968 C64.4332836,14.8016 64.2923881,15.1888 64.1514925,15.5584 L69.3470149,15.5584 L69.3470149,16.7024 L63.6231343,16.7024 Z M65.190597,17.248 C66.2120896,17.8464 67.1631343,18.568 68.0437313,19.4128 L67.268806,20.3104 C66.370597,19.4128 65.4195522,18.6384 64.3980597,17.9872 L65.190597,17.248 Z M73.0102985,14.8896 L78.3819403,14.8896 L78.3819403,19.1664 L73.0102985,19.1664 L73.0102985,14.8896 Z M77.2195522,18.0928 L77.2195522,15.9808 L74.1550746,15.9808 L74.1550746,18.0928 L77.2195522,18.0928 Z M80.3368657,14.8896 L85.8141791,14.8896 L85.8141791,19.1664 L80.3368657,19.1664 L80.3368657,14.8896 Z M84.669403,18.0928 L84.669403,15.9808 L81.4992537,15.9808 L81.4992537,18.0928 L84.669403,18.0928 Z M71.5837313,20.9264 L77.5189552,20.9264 C77.8535821,20.4688 78.1177612,19.9936 78.3291045,19.5008 L79.5443284,19.624 C79.368209,20.0816 79.1392537,20.504 78.8926866,20.9264 L83.4365672,20.9264 C83.19,20.4864 82.9258209,20.0816 82.6440299,19.7296 L83.7183582,19.3776 C84.088209,19.8704 84.4052239,20.3808 84.6870149,20.9264 L87.1174627,20.9264 L87.1174627,22.0528 L82.3622388,22.0528 C83.5070149,23.1088 85.2153731,23.9536 87.4873134,24.5696 L86.9765672,25.6432 C86.5362687,25.5024 86.131194,25.344 85.7437313,25.2032 L85.7437313,30.3776 L84.6165672,30.3776 L84.6165672,29.6208 L81.3231343,29.6208 L81.3231343,30.3776 L80.1959701,30.3776 L80.1959701,24.8336 L84.8983582,24.8336 C83.2076119,24.0592 81.9043284,23.1264 81.0237313,22.0528 L78.0473134,22.0528 C77.0610448,23.1792 75.7401493,24.0944 74.0846269,24.8336 L78.5052239,24.8336 L78.5052239,30.3776 L77.3780597,30.3776 L77.3780597,29.6208 L74.3664179,29.6208 L74.3664179,30.3776 L73.2568657,30.3776 L73.2568657,25.1856 C72.7813433,25.3616 72.3058209,25.52 71.8126866,25.6784 L71.2314925,24.64 C73.4858209,23.9712 75.211791,23.1088 76.4446269,22.0528 L71.5837313,22.0528 L71.5837313,20.9264 Z M74.3664179,28.5296 L77.3780597,28.5296 L77.3780597,25.8896 L74.3664179,25.8896 L74.3664179,28.5296 Z M81.3231343,28.5296 L84.6165672,28.5296 L84.6165672,25.8896 L81.3231343,25.8896 L81.3231343,28.5296 Z M89.1252239,15.1536 L104.782239,15.1536 L104.782239,16.4032 L97.1386567,16.4032 L97.1386567,19.0608 C99.3225373,20.152 101.541642,21.4192 103.79597,22.8624 L103.038657,23.9888 C100.696269,22.44 98.7237313,21.2432 97.1386567,20.3984 L97.1386567,30.3952 L95.8529851,30.3952 L95.8529851,16.4032 L89.1252239,16.4032 L89.1252239,15.1536 Z M106.913284,16.8256 L114.50403,16.8256 C114.151791,16.0512 113.729104,15.2944 113.218358,14.5904 L114.41597,14.1504 C114.909104,14.8896 115.367015,15.7872 115.789701,16.8256 L122.376567,16.8256 L122.376567,18.04 L113.095075,18.04 L112.936567,21.1728 L112.936567,21.208 L120.245522,21.208 C120.210299,24.6928 120.069403,26.928 119.840448,27.9136 C119.488209,29.4096 118.625224,30.184 117.233881,30.2368 C116.670299,30.2368 115.983433,30.2016 115.208507,30.1664 L114.821045,29.0224 C115.736866,29.0576 116.494179,29.0752 117.110597,29.0752 C118.008806,29.04 118.554776,28.4064 118.766119,27.1744 C118.871791,26.4352 118.924627,24.8336 118.959851,22.4048 L112.795672,22.4048 C112.566716,23.8304 112.126418,25.1152 111.492388,26.2768 C110.629403,27.7904 109.431791,29.1632 107.88194,30.4128 L106.966119,29.5328 C108.832985,27.9488 110.083433,26.488 110.699851,25.1328 C111.298657,23.7776 111.633284,22.264 111.721343,20.592 C111.774179,19.4832 111.809403,18.6384 111.827015,18.04 L106.913284,18.04 L106.913284,16.8256 Z M130.971194,13.8688 L131.429104,14.6256 C130.513284,15.2064 130.020149,15.9632 129.949701,16.896 C130.020149,16.8608 130.108209,16.8608 130.231493,16.8608 C130.548507,16.8608 130.795075,16.9488 131.006418,17.1424 C131.200149,17.3184 131.305821,17.5648 131.305821,17.8816 C131.305821,18.1984 131.200149,18.4624 131.006418,18.656 C130.795075,18.832 130.548507,18.9376 130.249104,18.9376 C129.386119,18.9376 128.963433,18.3568 128.963433,17.2304 C128.963433,15.6992 129.632687,14.5728 130.971194,13.8688 Z M127.48403,13.8688 L127.959552,14.6256 C127.026119,15.2064 126.532985,15.9632 126.480149,16.896 C126.550597,16.8608 126.638657,16.8608 126.76194,16.8608 C127.061343,16.8608 127.325522,16.9488 127.536866,17.1424 C127.730597,17.3184 127.836269,17.5648 127.836269,17.8816 C127.836269,18.1984 127.730597,18.4624 127.536866,18.656 C127.325522,18.832 127.061343,18.9376 126.76194,18.9376 C125.916567,18.9376 125.493881,18.3568 125.493881,17.2304 C125.493881,15.6992 126.145522,14.5728 127.48403,13.8688 Z M168.23806,13.8688 C169.083433,13.8688 169.506119,14.432 169.506119,15.576 C169.506119,17.0896 168.836866,18.216 167.51597,18.9376 L167.040448,18.1808 C167.956269,17.5824 168.449403,16.8256 168.519851,15.9104 C168.449403,15.928 168.343731,15.9456 168.23806,15.9456 C167.921045,15.9456 167.674478,15.84 167.480746,15.664 C167.269403,15.4704 167.163731,15.224 167.163731,14.9248 C167.163731,14.608 167.251791,14.344 167.463134,14.1504 C167.656866,13.9568 167.921045,13.8688 168.23806,13.8688 Z M164.768507,13.8688 C165.613881,13.8688 166.036567,14.432 166.036567,15.576 C166.036567,17.0896 165.367313,18.216 164.046418,18.9376 L163.570896,18.1808 C164.486716,17.5824 164.979851,16.8256 165.050299,15.9104 C164.979851,15.928 164.874179,15.9456 164.768507,15.9456 C164.451493,15.9456 164.204925,15.84 163.993582,15.664 C163.782239,15.4704 163.694179,15.224 163.694179,14.9248 C163.694179,14.608 163.782239,14.344 163.993582,14.1504 C164.187313,13.9568 164.451493,13.8688 164.768507,13.8688 Z M177.959851,14.608 L179.016567,15.2416 C178.206418,16.72 177.378657,17.9344 176.568507,18.8672 C175.68791,19.8704 174.525522,20.8736 173.081343,21.8944 L172.394478,20.7856 C173.59209,20.0816 174.666418,19.184 175.617463,18.0752 C176.462836,17.1072 177.255373,15.9456 177.959851,14.608 Z M178.400149,22.4224 L174.860149,22.4224 L174.860149,21.208 L185.709104,21.208 C185.656269,23.408 185.532985,25.1856 185.339254,26.5584 C185.145522,27.896 184.828507,28.8464 184.370597,29.3744 C183.912687,29.8848 183.190597,30.1664 182.186716,30.2192 L179.139851,30.2192 L178.805224,29.0048 C179.773881,29.04 180.689701,29.0576 181.552687,29.0576 C182.662239,29.0576 183.40194,28.6352 183.754179,27.8256 C184.106418,26.9808 184.335373,25.1856 184.441045,22.4224 L179.632985,22.4224 C179.22791,24.3584 178.646716,25.872 177.907015,26.9984 C177.04403,28.2304 175.740746,29.3216 173.997164,30.3072 L173.222239,29.304 C174.789701,28.4592 175.969701,27.5088 176.762239,26.4704 C177.50194,25.4496 178.04791,24.0944 178.400149,22.4224 Z M183.067313,14.3616 C184.053582,17.0544 185.85,19.184 188.438955,20.7328 L187.593582,21.7184 C184.916567,19.976 183.03209,17.7232 181.975373,14.96 L183.067313,14.3616 Z M192.771493,17.952 L203.321045,17.952 L203.321045,21.5072 L192.771493,21.5072 L192.771493,17.952 Z M202.105821,20.416 L202.105821,19.0432 L193.986716,19.0432 L193.986716,20.416 L202.105821,20.416 Z M197.843731,14.1856 C198.125522,14.6432 198.389701,15.136 198.636269,15.6992 L205.681045,15.6992 L205.681045,16.896 L190.393881,16.896 L190.393881,15.6992 L197.244925,15.6992 C196.980746,15.2416 196.698955,14.8016 196.399552,14.4144 L197.843731,14.1856 Z M190.006418,25.96 L197.720448,25.96 L197.720448,25.2736 C198.812388,24.8512 200.09806,24.3408 201.577463,23.7248 L191.714776,23.7248 L191.714776,22.5808 L204.078358,22.5808 L204.078358,23.496 C202.598955,24.1824 200.890597,24.8864 198.970896,25.6256 L198.970896,25.96 L206.068507,25.96 L206.068507,27.1216 L198.970896,27.1216 L198.970896,28.7584 C198.970896,29.8144 198.442537,30.36 197.403433,30.36 L194.920149,30.36 L194.585522,29.1984 C195.571791,29.2512 196.346716,29.2864 196.910299,29.2864 C197.438657,29.2864 197.720448,28.9872 197.720448,28.3888 L197.720448,27.1216 L190.006418,27.1216 L190.006418,25.96 Z M213.993881,26.84 L213.993881,28.0368 C212.232687,28.7056 210.242537,29.2336 207.988209,29.6384 L207.829701,28.4064 C210.189701,28.0192 212.232687,27.5088 213.993881,26.84 Z M210.735672,14.2032 L211.933284,14.6608 C211.052687,16.9488 210.136866,18.7616 209.221045,20.1344 C209.99597,20.0288 210.770896,19.9056 211.545821,19.7472 C211.862836,19.1136 212.179851,18.4624 212.514478,17.776 L213.641642,18.216 C212.127015,21.1904 210.876567,23.32 209.855075,24.5872 C211.123134,24.3232 212.391194,23.9712 213.659254,23.5136 L213.659254,24.6576 C211.827612,25.2912 210.066418,25.7136 208.375672,25.96 L208.041045,24.7984 C208.27,24.7104 208.463731,24.5872 208.604627,24.4464 C209.238657,23.7424 210.013582,22.5632 210.929403,20.9088 C209.960746,21.0848 208.99209,21.2608 208.005821,21.4016 L207.706418,20.24 C207.900149,20.1696 208.076269,20.0112 208.234776,19.7824 C209.185821,18.1632 210.031194,16.2976 210.735672,14.2032 Z M222.271493,23.1264 L222.271493,30.1488 L221.021045,30.1488 L221.021045,29.1808 L216.230597,29.1808 L216.230597,30.1488 L215.015373,30.1488 L215.015373,23.1264 L222.271493,23.1264 Z M216.230597,27.9664 L221.021045,27.9664 L221.021045,24.3232 L216.230597,24.3232 L216.230597,27.9664 Z M218.044627,14.3264 L219.242239,14.3264 C220.281343,16.4912 221.831194,18.2864 223.874179,19.6944 L223.134478,20.768 C221.267612,19.4304 219.770597,17.688 218.643433,15.5056 C217.375373,17.7232 215.860746,19.5008 214.117164,20.8384 L213.377463,19.8 C215.279552,18.3744 216.829403,16.544 218.044627,14.3264 Z M215.755075,19.7472 L221.426119,19.7472 L221.426119,20.9264 L215.755075,20.9264 L215.755075,19.7472 Z M237.664328,18.1808 C237.558657,18.6208 237.470597,19.0256 237.364925,19.4128 C237.664328,21.2432 238.051791,22.8624 238.527313,24.2352 C239.055672,22.4928 239.337463,20.4688 239.390299,18.1808 L237.664328,18.1808 Z M238.016567,25.6432 C237.541045,24.3584 237.13597,22.88 236.801343,21.2256 C236.484328,22.0704 236.149701,22.8096 235.797463,23.4784 L235.092985,22.5984 C236.114478,20.504 236.818955,17.688 237.188806,14.1504 L238.298358,14.344 C238.175075,15.2944 238.034179,16.1744 237.893284,17.0016 L241.186716,17.0016 L241.186716,18.1808 L240.482239,18.1808 C240.411791,21.1728 239.971493,23.7072 239.143731,25.8016 C239.795373,27.2448 240.570299,28.3712 241.468507,29.1808 L240.746418,30.2544 C239.918657,29.4448 239.196567,28.3712 238.597761,27.0336 C237.928507,28.336 237.083134,29.4272 236.096866,30.3072 L235.427612,29.2512 C236.519552,28.3184 237.382537,27.1216 238.016567,25.6432 Z M233.578358,29.2864 L233.05,28.2304 C233.226119,28.1248 233.349403,27.9488 233.384627,27.7376 L233.384627,24.5344 L231.517761,24.5344 L231.517761,25.3264 C231.482537,27.5264 230.918955,29.1632 229.844627,30.2544 L228.911194,29.4448 C229.844627,28.4944 230.320149,27.1216 230.337761,25.3264 L230.337761,23.3904 L234.511791,23.3904 L234.511791,27.3328 C235.004925,26.8928 235.515672,26.4176 236.04403,25.8896 L236.308209,26.9632 C235.41,27.9136 234.494179,28.688 233.578358,29.2864 Z M232.028507,14.2208 L233.102836,14.2208 L233.102836,18.216 L234.335672,18.216 L234.335672,15.1712 L235.374776,15.1712 L235.374776,19.3072 L229.738955,19.3072 L229.738955,15.1712 L230.795672,15.1712 L230.795672,18.216 L232.028507,18.216 L232.028507,14.2208 Z M227.995373,14.2736 L229.087313,14.784 C228.33,16.6672 227.114776,18.3392 225.441642,19.8 L225.054179,18.568 C226.392687,17.3184 227.378955,15.8928 227.995373,14.2736 Z M228.101045,18.9904 L229.157761,19.5008 C228.911194,20.1696 228.611791,20.8208 228.259552,21.4192 L228.259552,30.3952 L227.079552,30.3952 L227.079552,23.1264 C226.60403,23.7072 226.075672,24.2528 225.494478,24.7808 L225.124627,23.5664 C226.498358,22.2288 227.484627,20.7152 228.101045,18.9904 Z M229.703731,20.8736 L235.198657,20.8736 L235.198657,22 L229.703731,22 L229.703731,20.8736 Z M244.779552,20.504 C244.251194,21.2784 243.67,22.0352 243.03597,22.7392 L242.630896,21.384 C244.356866,19.2544 245.607313,16.808 246.399851,14.0624 L247.579851,14.608 C247.157164,15.9632 246.646418,17.2304 246.03,18.4272 L246.03,30.3952 L244.779552,30.3952 L244.779552,20.504 Z M247.509403,16.544 L252.933881,16.544 C252.669701,15.84 252.370299,15.1712 252.01806,14.5024 L253.233284,14.168 C253.603134,14.9424 253.884925,15.6464 254.096269,16.2976 L253.427015,16.544 L258.974776,16.544 L258.974776,17.7408 L247.509403,17.7408 L247.509403,16.544 Z M249.129701,19.1664 L257.460149,19.1664 L257.460149,20.3104 L249.129701,20.3104 L249.129701,19.1664 Z M249.129701,21.648 L257.460149,21.648 L257.460149,22.8096 L249.129701,22.8096 L249.129701,21.648 Z M257.777164,24.2528 L257.777164,30.36 L256.544328,30.36 L256.544328,29.4096 L250.02791,29.4096 L250.02791,30.36 L248.795075,30.36 L248.795075,24.2528 L257.777164,24.2528 Z M250.02791,28.2128 L256.544328,28.2128 L256.544328,25.432 L250.02791,25.432 L250.02791,28.2128 Z M263.430597,14.0272 L264.681045,14.1328 C264.469701,15.3648 264.258358,16.5264 264.047015,17.5824 L267.093881,17.5824 L267.093881,18.304 C266.935373,21.0848 266.354179,23.5136 265.36791,25.5728 C266.389403,26.3648 267.217164,27.0864 267.868806,27.72 L267.005821,28.7232 C266.407015,28.0896 265.649701,27.4208 264.769104,26.6816 C263.888507,28.1424 262.761343,29.392 261.405224,30.4304 L260.542239,29.3744 C261.880746,28.4064 262.955075,27.2448 263.782836,25.872 C262.972687,25.2208 262.056866,24.5344 261.070597,23.8128 C261.616567,22.264 262.09209,20.592 262.514776,18.7968 L260.64791,18.7968 L260.64791,17.5824 L262.778955,17.5824 C263.025522,16.4208 263.236866,15.2416 263.430597,14.0272 Z M264.346418,24.7984 C265.191791,23.056 265.684925,21.0496 265.843433,18.7968 L263.782836,18.7968 C263.360149,20.6624 262.919851,22.2112 262.46194,23.4432 C263.131194,23.9184 263.765224,24.376 264.346418,24.7984 Z M267.692687,21.6128 L271.672985,21.6128 L271.672985,19.3952 C272.62403,18.568 273.522239,17.5648 274.385224,16.368 L268.203433,16.368 L268.203433,15.136 L275.829403,15.136 L275.829403,16.368 C274.98403,17.5824 274.015373,18.7264 272.958657,19.7824 L272.958657,21.6128 L276.551493,21.6128 L276.551493,22.8448 L272.958657,22.8448 L272.958657,28.4768 C272.958657,29.6032 272.483134,30.1664 271.567313,30.1664 L269.031194,30.1664 L268.696567,28.9696 C269.418657,28.9696 270.211194,28.9872 271.056567,28.9872 C271.461642,28.9872 271.672985,28.688 271.672985,28.0896 L271.672985,22.8448 L267.692687,22.8448 L267.692687,21.6128 Z M278.594478,16.6496 L283.437761,16.6496 C283.543433,15.8752 283.631493,15.0656 283.719552,14.2384 L284.987612,14.2384 C284.899552,15.0832 284.811493,15.8928 284.705821,16.6496 L293.846418,16.6496 L293.846418,17.8816 L284.529701,17.8816 C284.371194,18.832 284.212687,19.712 284.036567,20.5216 L292.102836,20.5216 L292.102836,21.6304 C291.398358,23.5664 290.271194,25.2384 288.738955,26.6464 C290.200746,27.7552 291.997164,28.5824 294.110597,29.1456 L293.476567,30.3072 C291.169403,29.6384 289.267313,28.688 287.770299,27.4736 C286.220448,28.6352 284.33597,29.6032 282.15209,30.36 L281.482836,29.1632 C283.613881,28.512 285.392687,27.6672 286.836866,26.6464 C285.445522,25.2736 284.459254,23.6192 283.87806,21.7008 L283.754776,21.7008 C283.543433,22.5456 283.296866,23.3024 283.050299,23.9712 C282.134478,26.2944 280.760746,28.3536 278.929104,30.184 L278.136567,29.1632 C279.79209,27.456 281.042537,25.5552 281.88791,23.4784 C282.451493,21.9648 282.909403,20.0992 283.261642,17.8816 L278.594478,17.8816 L278.594478,16.6496 Z M285.05806,21.7008 C285.656866,23.3376 286.572687,24.728 287.805522,25.872 C289.161642,24.6752 290.14791,23.2848 290.764328,21.7008 L285.05806,21.7008 Z M34.2023881,63.2544 C36.4567164,63.2544 37.6895522,64.1872 37.9361194,66.088 L36.5623881,66.088 C36.4391045,65.5248 36.2101493,65.1024 35.8579104,64.856 C35.4704478,64.5744 34.9068657,64.4336 34.1847761,64.4336 C33.5507463,64.4336 33.0576119,64.5392 32.7053731,64.7856 C32.3179104,65.0144 32.1241791,65.3312 32.1241791,65.736 C32.1241791,66.1232 32.3707463,66.4576 32.8991045,66.7216 C33.2337313,66.88 33.8677612,67.0736 34.7835821,67.32 C35.8755224,67.584 36.6504478,67.8656 37.1259701,68.1648 C37.8480597,68.6224 38.2179104,69.2384 38.2179104,70.0304 C38.2179104,71.896 36.9322388,72.8464 34.3608955,72.8464 C31.9656716,72.8464 30.6623881,71.7904 30.4510448,69.696 L31.8247761,69.696 C31.9304478,70.4176 32.1946269,70.928 32.5820896,71.2448 C32.9695522,71.5264 33.5507463,71.6672 34.3256716,71.6672 C35.9459701,71.6672 36.7737313,71.1392 36.7737313,70.1184 C36.7737313,69.608 36.4743284,69.2208 35.9107463,68.9392 C35.6113433,68.7984 34.9597015,68.6048 33.9734328,68.3584 C32.8991045,68.0944 32.141791,67.8304 31.7191045,67.5488 C31.0146269,67.1264 30.68,66.5456 30.68,65.7712 C30.68,64.9968 31.0146269,64.3984 31.7014925,63.9408 C32.3355224,63.4832 33.1808955,63.2544 34.2023881,63.2544 Z M43.8361194,63.2544 C45.139403,63.2544 46.0904478,63.5888 46.7244776,64.2752 C47.2528358,64.8736 47.5346269,65.7008 47.5346269,66.7568 L47.5346269,72.6 L46.2137313,72.6 L46.2137313,71.0688 C45.8614925,71.5616 45.3859701,71.9664 44.8223881,72.2832 C44.1531343,72.6528 43.3958209,72.8464 42.5504478,72.8464 C41.6346269,72.8464 40.9125373,72.6176 40.3665672,72.16 C39.8029851,71.6848 39.521194,71.0688 39.521194,70.3296 C39.521194,69.2912 39.9262687,68.5168 40.7716418,67.9888 C41.5113433,67.496 42.5680597,67.232 43.941791,67.2144 L46.1256716,67.1792 L46.1256716,66.704 C46.1256716,65.1728 45.3331343,64.416 43.7480597,64.416 C43.078806,64.416 42.5328358,64.5392 42.1101493,64.8208 C41.6346269,65.1024 41.3352239,65.5424 41.1943284,66.1232 L39.8029851,66.0176 C39.9967164,65.0672 40.4722388,64.3456 41.2119403,63.888 C41.881194,63.4656 42.7441791,63.2544 43.8361194,63.2544 Z M46.1256716,68.2352 L44.0298507,68.2704 C41.9868657,68.3056 40.9653731,68.9744 40.9653731,70.2944 C40.9653731,70.7168 41.1238806,71.0512 41.4761194,71.3328 C41.8283582,71.5968 42.2862687,71.7376 42.8498507,71.7376 C43.7128358,71.7376 44.4701493,71.456 45.139403,70.8928 C45.7910448,70.3472 46.1256716,69.7136 46.1256716,69.0096 L46.1256716,68.2352 Z M53.3641791,60.0336 L55.1077612,60.0336 L55.1077612,61.248 L53.5402985,61.248 C53.1528358,61.248 52.8534328,61.336 52.6773134,61.5472 C52.501194,61.7408 52.4131343,62.0576 52.4131343,62.4976 L52.4131343,63.5008 L54.9844776,63.5008 L54.9844776,64.68 L52.4131343,64.68 L52.4131343,72.6 L51.0041791,72.6 L51.0041791,64.68 L48.7146269,64.68 L48.7146269,63.5008 L51.0041791,63.5008 L51.0041791,62.4624 C51.0041791,61.688 51.1979104,61.1072 51.5853731,60.6848 C51.9904478,60.2448 52.5892537,60.0336 53.3641791,60.0336 Z M60.2504478,63.2544 C61.5537313,63.2544 62.5047761,63.5888 63.138806,64.2752 C63.6671642,64.8736 63.9489552,65.7008 63.9489552,66.7568 L63.9489552,72.6 L62.6280597,72.6 L62.6280597,71.0688 C62.2758209,71.5616 61.8002985,71.9664 61.2367164,72.2832 C60.5674627,72.6528 59.8101493,72.8464 58.9647761,72.8464 C58.0489552,72.8464 57.3268657,72.6176 56.7808955,72.16 C56.2173134,71.6848 55.9355224,71.0688 55.9355224,70.3296 C55.9355224,69.2912 56.340597,68.5168 57.1859701,67.9888 C57.9256716,67.496 58.9823881,67.232 60.3561194,67.2144 L62.54,67.1792 L62.54,66.704 C62.54,65.1728 61.7474627,64.416 60.1623881,64.416 C59.4931343,64.416 58.9471642,64.5392 58.5244776,64.8208 C58.0489552,65.1024 57.7495522,65.5424 57.6086567,66.1232 L56.2173134,66.0176 C56.4110448,65.0672 56.8865672,64.3456 57.6262687,63.888 C58.2955224,63.4656 59.1585075,63.2544 60.2504478,63.2544 Z M62.54,68.2352 L60.4441791,68.2704 C58.401194,68.3056 57.3797015,68.9744 57.3797015,70.2944 C57.3797015,70.7168 57.538209,71.0512 57.8904478,71.3328 C58.2426866,71.5968 58.700597,71.7376 59.2641791,71.7376 C60.1271642,71.7376 60.8844776,71.456 61.5537313,70.8928 C62.2053731,70.3472 62.54,69.7136 62.54,69.0096 L62.54,68.2352 Z M70.1307463,63.2544 C70.6238806,63.2544 71.0465672,63.3248 71.381194,63.4656 L71.381194,64.8736 C70.9232836,64.7328 70.4653731,64.68 70.0250746,64.68 C69.320597,64.68 68.721791,64.9792 68.2462687,65.6128 C67.7531343,66.2112 67.5241791,66.9328 67.5241791,67.7776 L67.5241791,72.6 L66.1328358,72.6 L66.1328358,63.5008 L67.5241791,63.5008 L67.5241791,65.0848 C67.7707463,64.5568 68.0877612,64.1344 68.4752239,63.8352 C68.9507463,63.448 69.4967164,63.2544 70.1307463,63.2544 Z M73.7235821,60.0688 C74.0229851,60.0688 74.2695522,60.1568 74.4808955,60.368 C74.6922388,60.544 74.7979104,60.7904 74.7979104,61.1072 C74.7979104,61.4064 74.6922388,61.6528 74.4808955,61.864 C74.2695522,62.0576 74.0229851,62.1632 73.7235821,62.1632 C73.4241791,62.1632 73.1776119,62.0576 72.9662687,61.864 C72.7549254,61.6528 72.6668657,61.4064 72.6668657,61.1072 C72.6668657,60.7904 72.7549254,60.544 72.9662687,60.368 C73.1776119,60.1568 73.4241791,60.0688 73.7235821,60.0688 Z M73.0191045,63.5008 L74.4280597,63.5008 L74.4280597,72.6 L73.0191045,72.6 L73.0191045,63.5008 Z M77.9328358,58.52 C79.0071642,59.4 79.9053731,60.2976 80.6274627,61.1776 L79.7468657,62.0576 C79.0952239,61.2128 78.1970149,60.3152 77.0522388,59.3648 L77.9328358,58.52 Z M77.6686567,62.6384 C78.7077612,63.5184 79.5883582,64.3808 80.2928358,65.2432 L79.4122388,66.1232 C78.778209,65.296 77.8976119,64.416 76.8056716,63.4832 L77.6686567,62.6384 Z M79.6764179,67.584 L80.8035821,68.024 C80.0110448,70.2416 79.1304478,72.336 78.1441791,74.2896 L76.999403,73.7968 C78.0385075,71.7552 78.9367164,69.696 79.6764179,67.584 Z M81.1734328,61.16 L83.6391045,61.16 C83.3573134,60.2096 83.0579104,59.312 82.7056716,58.4848 L84.0089552,58.2736 C84.2907463,59.1184 84.5549254,60.0864 84.8367164,61.16 L87.038209,61.16 L87.038209,62.392 L86.2280597,62.392 C85.9286567,64.7152 85.5235821,66.6512 85.0304478,68.2 C85.8758209,69.6608 86.5979104,70.9984 87.1614925,72.1952 L86.1576119,72.8992 C85.6644776,71.8432 85.1185075,70.752 84.5020896,69.6256 C83.6743284,71.4032 82.4767164,73.0048 80.8916418,74.4128 L80.1167164,73.4096 C81.6313433,72.0544 82.7585075,70.5584 83.498209,68.9392 C83.5862687,68.728 83.6743284,68.5344 83.7447761,68.3232 C83.0402985,67.0912 82.2477612,65.824 81.3847761,64.504 L82.3710448,63.888 C83.0402985,64.9088 83.6567164,65.8944 84.2202985,66.8272 C84.5725373,65.5424 84.8543284,64.064 85.0656716,62.392 L81.1734328,62.392 L81.1734328,61.16 Z M88.0773134,59.752 L89.2573134,59.752 L89.2573134,70.752 L88.0773134,70.752 L88.0773134,59.752 Z M90.5429851,74.2192 L88.218209,74.2192 L87.9364179,73.0048 C88.6937313,73.04 89.4158209,73.0752 90.1026866,73.0752 C90.6310448,73.0752 90.8952239,72.7936 90.8952239,72.248 L90.8952239,58.2736 L92.1104478,58.2736 L92.1104478,72.5824 C92.1104478,73.6736 91.5820896,74.2192 90.5429851,74.2192 Z M106.992537,64.68 L106.992537,70.9456 L105.74209,70.9456 L105.74209,65.8416 L98.7853731,65.8416 L98.7853731,70.9808 L97.5173134,70.9808 L97.5173134,64.68 L106.992537,64.68 Z M101.497612,66.968 L102.74806,66.968 L102.74806,68.1824 C102.677612,69.8896 102.078806,71.2624 100.951642,72.2832 C99.8420896,73.216 98.0280597,73.9552 95.5095522,74.4832 L94.7874627,73.3568 C97.2883582,72.864 99.0319403,72.2304 100.035821,71.4384 C100.951642,70.5936 101.427164,69.52 101.497612,68.1824 L101.497612,66.968 Z M107.978806,74.0784 L104.56209,74.0784 C103.470149,74.0784 102.924179,73.5152 102.924179,72.4064 L102.924179,69.0272 L104.139403,69.0272 L104.139403,72.1424 C104.139403,72.6528 104.403582,72.9168 104.93194,72.9168 L107.749851,72.9168 C108.119701,72.9168 108.383881,72.8112 108.56,72.6176 C108.771343,72.3712 108.912239,71.6848 108.982687,70.5232 L110.145075,70.8928 C110.039403,72.4064 109.792836,73.3216 109.440597,73.656 C109.123582,73.9376 108.64806,74.0784 107.978806,74.0784 Z M99.1376119,58.2208 L100.38806,58.2208 L100.38806,63.9408 L99.1376119,63.9408 L99.1376119,58.2208 Z M95.6856716,58.96 L96.9008955,58.96 L96.9008955,63.5008 L95.6856716,63.5008 L95.6856716,58.96 Z M104.280299,60.7024 C103.716716,61.776 103.047463,62.6736 102.290149,63.3776 L101.339104,62.4976 C102.536716,61.3184 103.434925,59.84 104.016119,58.08 L105.231343,58.3968 C105.090448,58.8016 104.949552,59.1888 104.808657,59.5584 L110.004179,59.5584 L110.004179,60.7024 L104.280299,60.7024 Z M105.847761,61.248 C106.869254,61.8464 107.820299,62.568 108.700896,63.4128 L107.92597,64.3104 C107.027761,63.4128 106.076716,62.6384 105.055224,61.9872 L105.847761,61.248 Z M113.667463,58.8896 L119.039104,58.8896 L119.039104,63.1664 L113.667463,63.1664 L113.667463,58.8896 Z M117.876716,62.0928 L117.876716,59.9808 L114.812239,59.9808 L114.812239,62.0928 L117.876716,62.0928 Z M120.99403,58.8896 L126.471343,58.8896 L126.471343,63.1664 L120.99403,63.1664 L120.99403,58.8896 Z M125.326567,62.0928 L125.326567,59.9808 L122.156418,59.9808 L122.156418,62.0928 L125.326567,62.0928 Z M112.240896,64.9264 L118.176119,64.9264 C118.510746,64.4688 118.774925,63.9936 118.986269,63.5008 L120.201493,63.624 C120.025373,64.0816 119.796418,64.504 119.549851,64.9264 L124.093731,64.9264 C123.847164,64.4864 123.582985,64.0816 123.301194,63.7296 L124.375522,63.3776 C124.745373,63.8704 125.062388,64.3808 125.344179,64.9264 L127.774627,64.9264 L127.774627,66.0528 L123.019403,66.0528 C124.164179,67.1088 125.872537,67.9536 128.144478,68.5696 L127.633731,69.6432 C127.193433,69.5024 126.788358,69.344 126.400896,69.2032 L126.400896,74.3776 L125.273731,74.3776 L125.273731,73.6208 L121.980299,73.6208 L121.980299,74.3776 L120.853134,74.3776 L120.853134,68.8336 L125.555522,68.8336 C123.864776,68.0592 122.561493,67.1264 121.680896,66.0528 L118.704478,66.0528 C117.718209,67.1792 116.397313,68.0944 114.741791,68.8336 L119.162388,68.8336 L119.162388,74.3776 L118.035224,74.3776 L118.035224,73.6208 L115.023582,73.6208 L115.023582,74.3776 L113.91403,74.3776 L113.91403,69.1856 C113.438507,69.3616 112.962985,69.52 112.469851,69.6784 L111.888657,68.64 C114.142985,67.9712 115.868955,67.1088 117.101791,66.0528 L112.240896,66.0528 L112.240896,64.9264 Z M115.023582,72.5296 L118.035224,72.5296 L118.035224,69.8896 L115.023582,69.8896 L115.023582,72.5296 Z M121.980299,72.5296 L125.273731,72.5296 L125.273731,69.8896 L121.980299,69.8896 L121.980299,72.5296 Z M139.627463,58.2208 L140.842687,58.2208 L140.842687,59.3648 L145.210448,59.3648 L145.210448,60.4032 L140.842687,60.4032 L140.842687,61.5824 L144.576418,61.5824 L144.576418,62.6032 L140.842687,62.6032 L140.842687,63.8 L145.650746,63.8 L145.650746,64.856 L134.872239,64.856 L134.872239,63.8 L139.627463,63.8 L139.627463,62.6032 L136.069851,62.6032 L136.069851,61.5824 L139.627463,61.5824 L139.627463,60.4032 L135.365373,60.4032 L135.365373,59.3648 L139.627463,59.3648 L139.627463,58.2208 Z M137.42597,69.2912 L137.42597,70.576 L143.114627,70.576 L143.114627,69.2912 L137.42597,69.2912 Z M143.114627,68.3056 L143.114627,67.0032 L137.42597,67.0032 L137.42597,68.3056 L143.114627,68.3056 Z M137.42597,71.5616 L137.42597,74.36 L136.210746,74.36 L136.210746,65.9648 L144.329851,65.9648 L144.329851,72.8288 C144.329851,73.7792 143.819104,74.2544 142.832836,74.2544 L141.353433,74.2544 L141.05403,73.128 L142.462985,73.1808 C142.885672,73.1808 143.114627,72.9696 143.114627,72.5648 L143.114627,71.5616 L137.42597,71.5616 Z M131.684478,58.4144 C132.864478,59.2944 133.850746,60.192 134.660896,61.0896 L133.79791,61.9696 C133.058209,61.1248 132.054328,60.2272 130.786269,59.2768 L131.684478,58.4144 Z M129.553433,63.6064 L133.287164,63.6064 L133.287164,71.3328 C133.815522,70.84 134.361493,70.2944 134.960299,69.6784 L135.294925,71.016 C134.308657,72.0368 133.25194,72.952 132.16,73.744 L131.666866,72.6176 C131.931045,72.3712 132.07194,72.1072 132.07194,71.808 L132.07194,64.8208 L129.553433,64.8208 L129.553433,63.6064 Z M154.315821,58.256 L155.566269,58.256 L155.566269,59.9632 L162.399701,59.9632 L162.399701,61.16 L155.566269,61.16 L155.566269,63.3952 L161.184478,63.3952 L161.184478,69.0448 L149.525373,69.0448 L149.525373,63.3952 L154.315821,63.3952 L154.315821,58.256 Z M159.916418,67.8656 L159.916418,64.592 L150.793433,64.592 L150.793433,67.8656 L159.916418,67.8656 Z M149.490149,69.8192 L150.564478,70.3296 C149.895224,71.8608 149.13791,73.1808 148.257313,74.3072 L147.218209,73.5504 C148.098806,72.512 148.856119,71.2624 149.490149,69.8192 Z M153.329552,70.3296 C153.681791,71.4912 153.998806,72.7584 154.280597,74.1136 L153.012537,74.3952 C152.76597,72.952 152.484179,71.6848 152.149552,70.576 L153.329552,70.3296 Z M157.010448,70.1536 C157.538806,71.3504 157.996716,72.6704 158.384179,74.0784 L157.133731,74.36 C156.781493,72.864 156.341194,71.544 155.812836,70.4 L157.010448,70.1536 Z M160.620896,69.8016 C161.74806,71.28 162.593433,72.5648 163.192239,73.656 L162.135522,74.3952 C161.519104,73.1984 160.673731,71.896 159.599403,70.4528 L160.620896,69.8016 Z M166.432836,60.8256 L172.19194,60.8256 L172.19194,58.344 L173.495224,58.344 L173.495224,60.8256 L179.183881,60.8256 L179.183881,62.04 L173.495224,62.04 L173.495224,64.9616 L180.62806,64.9616 L180.62806,66.1936 L173.495224,66.1936 L173.495224,72.4064 L177.651642,72.4064 L177.651642,67.7248 L178.866866,67.7248 L178.866866,74.3952 L177.651642,74.3952 L177.651642,73.5856 L168.053134,73.5856 L168.053134,74.3952 L166.83791,74.3952 L166.83791,67.7248 L168.053134,67.7248 L168.053134,72.4064 L172.19194,72.4064 L172.19194,66.1936 L165.076716,66.1936 L165.076716,64.9616 L172.19194,64.9616 L172.19194,62.04 L166.432836,62.04 L166.432836,60.8256 Z M189.240299,57.8688 L189.698209,58.6256 C188.782388,59.2064 188.289254,59.9632 188.218806,60.896 C188.289254,60.8608 188.377313,60.8608 188.500597,60.8608 C188.817612,60.8608 189.064179,60.9488 189.275522,61.1424 C189.469254,61.3184 189.574925,61.5648 189.574925,61.8816 C189.574925,62.1984 189.469254,62.4624 189.275522,62.656 C189.064179,62.832 188.817612,62.9376 188.518209,62.9376 C187.655224,62.9376 187.232537,62.3568 187.232537,61.2304 C187.232537,59.6992 187.901791,58.5728 189.240299,57.8688 Z M185.753134,57.8688 L186.228657,58.6256 C185.295224,59.2064 184.80209,59.9632 184.749254,60.896 C184.819701,60.8608 184.907761,60.8608 185.031045,60.8608 C185.330448,60.8608 185.594627,60.9488 185.80597,61.1424 C185.999701,61.3184 186.105373,61.5648 186.105373,61.8816 C186.105373,62.1984 185.999701,62.4624 185.80597,62.656 C185.594627,62.832 185.330448,62.9376 185.031045,62.9376 C184.185672,62.9376 183.762985,62.3568 183.762985,61.2304 C183.762985,59.6992 184.414627,58.5728 185.753134,57.8688 Z M226.507164,57.8688 C227.352537,57.8688 227.775224,58.432 227.775224,59.576 C227.775224,61.0896 227.10597,62.216 225.785075,62.9376 L225.309552,62.1808 C226.225373,61.5824 226.718507,60.8256 226.788955,59.9104 C226.718507,59.928 226.612836,59.9456 226.507164,59.9456 C226.190149,59.9456 225.943582,59.84 225.749851,59.664 C225.538507,59.4704 225.432836,59.224 225.432836,58.9248 C225.432836,58.608 225.520896,58.344 225.732239,58.1504 C225.92597,57.9568 226.190149,57.8688 226.507164,57.8688 Z M223.037612,57.8688 C223.882985,57.8688 224.305672,58.432 224.305672,59.576 C224.305672,61.0896 223.636418,62.216 222.315522,62.9376 L221.84,62.1808 C222.755821,61.5824 223.248955,60.8256 223.319403,59.9104 C223.248955,59.928 223.143284,59.9456 223.037612,59.9456 C222.720597,59.9456 222.47403,59.84 222.262687,59.664 C222.051343,59.4704 221.963284,59.224 221.963284,58.9248 C221.963284,58.608 222.051343,58.344 222.262687,58.1504 C222.456418,57.9568 222.720597,57.8688 223.037612,57.8688 Z M246.179701,60.2272 L246.179701,63.6944 L244.964478,63.6944 L244.964478,61.3712 L237.937313,61.3712 L237.937313,63.7648 L236.739701,63.7648 L236.739701,60.2272 L240.790448,60.2272 C240.561493,59.5232 240.297313,58.8896 240.015522,58.2912 L241.301194,58.08 C241.565373,58.7136 241.81194,59.4176 242.058507,60.2272 L246.179701,60.2272 Z M240.015522,62.48 L241.248358,62.5856 C241.001791,63.5888 240.737612,64.504 240.491045,65.3136 L246.743284,65.3136 L246.743284,66.528 L244.629851,66.528 C244.34806,68.288 243.731642,69.7664 242.798209,70.928 C244.453731,71.8432 245.774627,72.6704 246.796119,73.3744 L245.933134,74.3776 C244.876418,73.6032 243.555522,72.7584 241.970448,71.8256 C240.737612,72.9168 238.765075,73.7792 236.017612,74.4304 L235.506866,73.2336 C237.831642,72.7056 239.575224,72.0016 240.772836,71.1216 C239.751343,70.5408 238.659403,69.9424 237.497015,69.3264 C237.972537,68.4464 238.395224,67.5136 238.782687,66.528 L236.317015,66.528 L236.317015,65.3136 L239.205373,65.3136 C239.504776,64.3984 239.768955,63.4656 240.015522,62.48 Z M243.414627,66.528 L240.068358,66.528 C239.716119,67.4432 239.363881,68.2528 238.99403,68.9216 C239.945075,69.4144 240.843284,69.872 241.671045,70.312 C242.53403,69.3264 243.115224,68.0768 243.414627,66.528 Z M232.688955,74.2016 L231.19194,74.2016 L230.927761,72.9696 C231.385672,73.0048 231.82597,73.04 232.248657,73.04 C232.671343,73.04 232.900299,72.8112 232.900299,72.3536 L232.900299,68.112 C232.195821,68.376 231.491343,68.6224 230.804478,68.8336 L230.487463,67.5664 C231.315224,67.3728 232.125373,67.1264 232.900299,66.8448 L232.900299,62.8144 L230.839701,62.8144 L230.839701,61.6 L232.900299,61.6 L232.900299,58.2736 L234.203582,58.2736 L234.203582,61.6 L235.859104,61.6 L235.859104,62.8144 L234.203582,62.8144 L234.203582,66.3344 C234.749552,66.088 235.295522,65.824 235.841493,65.5424 L235.841493,66.8272 C235.295522,67.0912 234.749552,67.3376 234.203582,67.584 L234.203582,72.6704 C234.203582,73.6912 233.692836,74.2016 232.688955,74.2016 Z M262.153731,60.192 L259.106866,60.192 L258.648955,65.4192 L261.889552,65.4192 L262.153731,60.192 Z M257.416119,65.4192 L257.87403,60.192 L255.637313,60.192 L255.637313,58.9952 L263.457015,58.9952 L262.822985,72.6 L264.40806,72.6 L264.40806,73.832 L254.651045,73.832 L254.651045,72.6 L256.78209,72.6 L257.310448,66.6512 L255.179403,66.6512 L255.179403,65.4192 L257.416119,65.4192 Z M257.997313,72.6 L261.554925,72.6 L261.836716,66.6512 L258.543284,66.6512 L257.997313,72.6 Z M250.565075,58.256 L251.79791,58.5024 C251.639403,59.1008 251.463284,59.664 251.287164,60.2272 L254.527761,60.2272 L254.527761,61.4064 L250.864478,61.4064 C250.388955,62.6032 249.842985,63.6944 249.226567,64.6624 L248.187463,64.0112 C249.279403,62.2864 250.07194,60.368 250.565075,58.256 Z M250.036716,63.7648 L254.228358,63.7648 L254.228358,64.9088 L252.396716,64.9088 L252.396716,67.0736 L254.827164,67.0736 L254.827164,68.2352 L252.396716,68.2352 L252.396716,72.3888 C253.118806,72.0896 253.858507,71.7024 254.598209,71.2272 L254.827164,72.3536 C253.770448,72.9872 252.537612,73.4976 251.163881,73.9024 L250.61791,72.8112 C250.970149,72.6704 251.146269,72.4768 251.146269,72.2304 L251.146269,68.2352 L248.733433,68.2352 L248.733433,67.0736 L251.146269,67.0736 L251.146269,64.9088 L250.036716,64.9088 L250.036716,63.7648 Z" id="点击浏览器下方“-”分享给微信好友-sa" fill="#FFFFFF"></path>
                    <g id="Group-2" transform="translate(138.694030, 15.400000)" fill="#0078f1" >
                        <rect id="Rectangle" x="0" y="0" width="17.6119403" height="2" rx="0.5"></rect>
                        <rect id="Rectangle" x="0" y="7.24705882" width="17.6119403" height="2" rx="0.5"></rect>
                        <rect id="Rectangle" x="0" y="14.4941176" width="17.6119403" height="2" rx="0.5"></rect>
                    </g>
                    <g id="Group-3" transform="translate(198.134328, 53.900000)" fill="#0078f1" >
                        <rect id="Rectangle-21" x="7.27715589" y="1.28804487" width="1" height="12.4384615"></rect>
                        <path d="M5.13681592,7.50727564 L5.13681592,8.39573717 L0.856135987,8.39573717 L0.856135987,21.7226603 L14.5543118,21.7226603 L14.5543118,8.39573717 L10.2736318,8.39573717 L10.2736318,7.50727564 L15.4104478,7.50727564 L15.4104478,22.6111218 L0,22.6111218 L0,7.50727564 L5.13681592,7.50727564 Z" id="Combined-Shape" ></path>
                        <path d="M9.62952419,1.8211001 L10.6586768,1.8211001 L10.6586768,8.04033087 L4.66572493,8.04033087 L4.66572493,6.97231999 L9.62952419,6.97231999 L9.62952419,1.8211001 Z" id="Combined-Shape" transform="translate(7.662201, 4.930715) rotate(-135.000000) translate(-7.662201, -4.930715) "></path>
                    </g>
                </g>
                <path d="M157.17151,172.489366 C157.537566,172.307306 157.51892,171.945177 157.333438,171.615878 C158.180374,171.507438 159.02829,171.396014 159.874244,171.273646 C161.057794,171.101535 159.92822,169.351574 159.027309,169.45305 C142.155338,171.378106 124.917311,171.469633 108.451634,175.975359 C109.442833,173.077329 110.700969,170.123586 109.751969,167.26933 C112.601911,167.395677 115.476388,166.466477 118.394045,166.591829 C125.159713,166.882329 131.865517,166.469462 138.636092,166.885313 C144.861998,167.26734 151.067295,166.956943 157.258853,166.182942 C157.314792,166.313268 157.381526,166.433647 157.425689,166.575912 C157.62491,167.219587 158.721117,167.400651 158.491473,166.525174 C158.438478,166.323217 158.373706,166.136183 158.302065,165.957108 C158.467919,165.729285 158.187243,165.276623 157.850628,165.110481 C157.254928,164.228039 156.387383,163.633113 155.344171,163.04515 C153.913312,162.238317 152.286175,161.754815 150.800359,161.059407 C149.107469,159.155243 149.770886,158.686663 152.789626,159.654663 C154.754359,159.839707 156.764235,160.518203 158.608257,161.149939 C162.414068,162.450223 165.930371,164.525503 169.756791,165.762115 C174.60287,167.329021 179.617747,168.144808 184.411812,169.782349 C178.242827,170.20417 172.476208,171.660647 166.268949,172.551047 C160.882126,173.32306 156.012494,175.558512 150.914199,177.101542 C151.47457,176.756325 152.046717,176.421057 152.634567,176.094743 C154.377507,175.124753 155.462919,173.335993 157.17151,172.489366 Z M166.990266,174.294044 C174.276068,173.135031 181.068234,171.35025 188.517927,171.329358 C189.520903,171.326373 188.721074,169.945506 188.251972,169.73559 C181.020146,166.500302 173.0935,165.806884 165.818493,162.680036 C159.93509,160.152094 154.272499,157.506758 147.735493,158.078803 C147.286019,158.117603 147.23695,158.537434 147.341958,158.896579 C148.54808,163.009335 154.211653,162.50295 156.582679,165.112471 C150.551087,165.595973 144.285925,165.636763 138.289663,165.215937 C133.155057,164.855797 128.302108,164.778198 123.181241,164.90554 C120.144836,164.981149 117.097636,164.717511 114.069082,164.511575 C112.058224,164.376274 110.434032,165.644722 108.231804,165.294531 C107.407441,165.163209 107.375055,166.006851 107.700875,166.542086 C109.51153,169.506772 106.771503,173.879187 106.030558,176.86377 C105.823485,177.693484 106.706732,178.608757 107.535021,178.361036 C122.902528,173.766768 138.823536,173.75085 154.591449,171.948162 C153.563939,172.755989 152.687562,173.747865 151.495179,174.418402 C149.464694,175.563487 147.604969,176.645896 146.01807,178.380933 C145.460643,178.990783 146.42927,180.113981 147.114277,179.990619 C153.952567,178.754006 160.056782,175.397345 166.990266,174.294044 Z" id="Fill-147" fill="#FFFFFF" transform="translate(147.500000, 169.000000) rotate(-270.000000) translate(-147.500000, -169.000000) "></path>
            </g>
        </g>
    </g>
</svg>